<svg xmlns="http://www.w3.org/2000/svg">
<svg viewBox="0 0 24 24" preserveAspectRatio="xMidYMid meet" focusable="false" class="style-scope yt-icon" style="pointer-events: none; display: block; width: 100%; height: 100%;"><g fill-rule="nonzero" fill="none" class="style-scope yt-icon"><circle fill="red" cx="12" cy="12" r="12" class="style-scope yt-icon"></circle><path d="M12 6.278A5.728 5.728 0 0 1 17.722 12 5.728 5.728 0 0 1 12 17.722 5.728 5.728 0 0 1 6.278 12 5.728 5.728 0 0 1 12 6.278zm0-.55A6.272 6.272 0 0 0 5.727 12 6.272 6.272 0 0 0 12 18.273 6.272 6.272 0 0 0 18.273 12 6.272 6.272 0 0 0 12 5.727z" fill="#FFF" class="style-scope yt-icon"></path><path fill="#FFF" d="M9.818 15.136l5.318-3.272-5.318-3z" class="style-scope yt-icon"></path></g></svg>
</svg>